<svg xmlns:inkscape="http://www.inkscape.org/namespaces/inkscape" xmlns:sodipodi="http://sodipodi.sourceforge.net/DTD/sodipodi-0.dtd" xmlns="http://www.w3.org/2000/svg" xmlns:svg="http://www.w3.org/2000/svg" id="svg2" width="190" height="220" viewBox="0 0 190.00001 220" sodipodi:docname="Assets_Site-2.svg" inkscape:version="1.4.2 (f4327f4, 2025-05-13)"><defs id="defs6"><clipPath clipPathUnits="userSpaceOnUse" id="clipPath20"><path d="M 0,768 H 1024 V 0 H 0 Z" id="path18"></path></clipPath></defs><g id="g8" transform="matrix(1.3333333,0,0,-1.3333333,0,1024)"><g id="g14" transform="matrix(1.3089677,0,0,1.3089677,-176.09569,183.44023)"><g id="g16" clip-path="url(#clipPath20)"><g id="g54" transform="translate(205.5931,382.0745)"><path d="M 0,0 -62.635,58.565 V 45.179 c 0,-2.861 1.179,-5.706 3.268,-7.659 l 47.953,-44.838 -40.322,-42.209 1.905,-1.822 c 4.123,-3.944 10.664,-3.799 14.608,0.324 l 35.549,37.162 v 0 C 4.071,-9.948 3.925,-3.735 0,0" style="fill:#ee6c2d;fill-opacity:1;fill-rule:nonzero;stroke:none" id="path56"></path></g><g id="g58" transform="translate(175.7247,374.0232)"><path d="M 0,0 -32.767,30.638 V 16.984 c 0,-2.861 1.364,-5.593 3.453,-7.547 L -9.068,-9.511 Z" style="fill:#ee6c2d;fill-opacity:1;fill-rule:nonzero;stroke:none" id="path60"></path></g><g id="g62" transform="translate(233.5429,404.469)"><path d="m 0,0 h -15.978 c -2.502,0 -4.912,-0.944 -6.749,-2.643 l -9.09,-9.521 h 20.508 v -6.992 L 2.025,-5.171 C 4.016,-3.329 2.713,0 0,0" style="fill:#ee6c2d;fill-opacity:1;fill-rule:nonzero;stroke:none" id="path64"></path></g></g></g></g></svg>