<svg xmlns:inkscape="http://www.inkscape.org/namespaces/inkscape" xmlns:sodipodi="http://sodipodi.sourceforge.net/DTD/sodipodi-0.dtd" xmlns="http://www.w3.org/2000/svg" xmlns:svg="http://www.w3.org/2000/svg" id="svg2" width="1321.333" height="230" viewBox="0 0 1321.3331 230" sodipodi:docname="Assets_Site-2.svg" inkscape:version="1.4.2 (f4327f4, 2025-05-13)"><defs id="defs6"><clipPath clipPathUnits="userSpaceOnUse" id="clipPath20"><path d="M 0,768 H 1024 V 0 H 0 Z" id="path18"></path></clipPath></defs><g id="g8" transform="matrix(1.3333333,0,0,-1.3333333,0,1024)"><g id="g14" transform="matrix(1.3089677,0,0,1.3089677,-176.09569,183.44023)"><g id="g16" clip-path="url(#clipPath20)"><g id="g22" transform="translate(292.4552,360.2007)" style="fill:#ffffff"><path d="m 0,0 v 15.124 c 0,9.291 -6.05,15.34 -14.908,15.34 -8.966,0 -15.016,-6.049 -15.016,-15.34 V 0 Z M 15.016,15.988 V -31.76 H 0 v 18.472 H -29.924 V -31.76 H -44.94 v 47.748 c 0,16.745 12.315,28.304 30.032,28.304 17.609,0 29.924,-11.559 29.924,-28.304" style="fill:#ffffff;fill-opacity:1;fill-rule:nonzero;stroke:none" id="path24"></path></g><g id="g26" transform="translate(395.8402,366.0343)" style="fill:#ffffff"><path d="m 0,0 c 0,-22.47 -15.989,-38.566 -38.891,-38.566 -22.794,0 -39.214,16.204 -39.214,38.566 0,22.254 16.42,38.458 39.214,38.458 18.797,0 34.246,-11.883 37.595,-28.627 h -15.665 c -3.025,9.29 -11.127,15.664 -21.822,15.664 -13.935,0 -23.982,-10.695 -23.982,-25.387 0,-14.8 10.047,-25.603 23.982,-25.603 11.128,0 20.094,6.806 22.254,16.637 H -38.783 V 3.889 H -0.108 C -0.108,2.809 0,1.296 0,0" style="fill:#ffffff;fill-opacity:1;fill-rule:nonzero;stroke:none" id="path28"></path></g><g id="g30" transform="translate(451.6936,379.1057)" style="fill:#ffffff"><path d="m 0,0 c 0,6.806 -4.429,11.127 -11.343,11.127 h -18.365 v -22.362 h 18.365 C -4.429,-11.235 0,-6.806 0,0 M 15.232,-34.893 V -50.665 H 0.216 v 15.88 c 0,6.698 -4.105,11.45 -10.695,11.45 h -19.229 v -27.33 h -15.016 v 74.972 h 35.002 c 15.232,0 24.954,-8.319 24.954,-21.606 0,-9.183 -4.645,-15.988 -12.531,-19.23 7.778,-2.376 12.531,-8.425 12.531,-18.364" style="fill:#ffffff;fill-opacity:1;fill-rule:nonzero;stroke:none" id="path32"></path></g><g id="g34" transform="translate(491.3424,366.1423)"><path d="m 0,0 c 0,-14.476 10.047,-24.955 23.874,-24.955 13.936,0 23.983,10.479 23.983,24.955 0,14.26 -10.047,24.523 -23.983,24.523 C 10.047,24.523 0,14.26 0,0 m 63.089,-0.108 c 0,-22.362 -16.42,-38.566 -39.215,-38.566 -22.794,0 -39.214,16.204 -39.214,38.566 0,22.254 16.42,38.458 39.214,38.458 22.795,0 39.215,-16.204 39.215,-38.458" style="fill:#ffffff;fill-opacity:1;fill-rule:nonzero;stroke:none" id="path36" inkscape:highlight-color="#f75d5d"></path></g><g id="g38" transform="translate(626.0881,403.4125)"><path d="m 0,0 v -74.972 h -15.017 v 30.788 H -44.4 V -74.972 H -59.417 V 0 H -44.4 v -31.005 h 29.383 V 0 Z" style="fill:#ee6c2d;fill-opacity:1;fill-rule:nonzero;stroke:none" id="path40"></path></g><g id="g42" transform="translate(684.7496,360.2007)"><path d="m 0,0 v 15.124 c 0,9.291 -6.05,15.34 -14.908,15.34 -8.966,0 -15.016,-6.049 -15.016,-15.34 V 0 Z M 15.016,15.988 V -31.76 H 0 v 18.472 H -29.924 V -31.76 H -44.94 v 47.748 c 0,16.745 12.315,28.304 30.032,28.304 17.609,0 29.924,-11.559 29.924,-28.304" style="fill:#ee6c2d;fill-opacity:1;fill-rule:nonzero;stroke:none" id="path44"></path></g><g id="g46" transform="translate(807.2552,403.4125)"><path d="m 0,0 v -50.342 c 0,-15.232 -11.127,-25.71 -25.386,-25.71 -9.507,0 -17.609,4.752 -21.931,12.315 -4.213,-7.563 -12.423,-12.315 -21.822,-12.315 -14.259,0 -25.386,10.694 -25.386,25.71 V 0 h 15.016 v -49.153 c 0,-7.887 4.861,-13.072 12.315,-13.072 7.346,0 12.424,5.185 12.424,13.072 V 0 h 15.015 v -49.153 c 0,-7.887 4.97,-13.072 12.424,-13.072 7.346,0 12.315,5.185 12.315,13.072 V 0 Z" style="fill:#ee6c2d;fill-opacity:1;fill-rule:nonzero;stroke:none" id="path48"></path></g><g id="g50" transform="translate(851.4419,366.8987)"><path d="M 0,0 29.276,-38.458 H 11.883 L -15.34,-2.052 V -38.458 H -30.356 V 36.514 H -15.34 V 1.945 L 12.208,36.514 H 29.6 Z" style="fill:#ee6c2d;fill-opacity:1;fill-rule:nonzero;stroke:none" id="path52"></path></g><g id="g54" transform="translate(205.5931,382.0745)"><path d="M 0,0 -62.635,58.565 V 45.179 c 0,-2.861 1.179,-5.706 3.268,-7.659 l 47.953,-44.838 -40.322,-42.209 1.905,-1.822 c 4.123,-3.944 10.664,-3.799 14.608,0.324 l 35.549,37.162 v 0 C 4.071,-9.948 3.925,-3.735 0,0" style="fill:#ee6c2d;fill-opacity:1;fill-rule:nonzero;stroke:none" id="path56"></path></g><g id="g58" transform="translate(175.7247,374.0232)"><path d="M 0,0 -32.767,30.638 V 16.984 c 0,-2.861 1.364,-5.593 3.453,-7.547 L -9.068,-9.511 Z" style="fill:#ee6c2d;fill-opacity:1;fill-rule:nonzero;stroke:none" id="path60"></path></g><g id="g62" transform="translate(233.5429,404.469)"><path d="m 0,0 h -15.978 c -2.502,0 -4.912,-0.944 -6.749,-2.643 l -9.09,-9.521 h 20.508 v -6.992 L 2.025,-5.171 C 4.016,-3.329 2.713,0 0,0" style="fill:#ee6c2d;fill-opacity:1;fill-rule:nonzero;stroke:none" id="path64"></path></g></g></g></g></svg>